<mxfile host="app.diagrams.net" modified="2021-12-17T08:16:41.129Z" agent="5.0 (Macintosh; Intel Mac OS X 10_15_7) AppleWebKit/537.36 (KHTML, like Gecko) Chrome/96.0.4664.93 Safari/537.36" etag="cdsnBwAsXcnKfcqkfGt-" version="15.9.6" type="github">
  <diagram id="jwAzk1o8AVsPpnpvkqDc" name="Page-1">
    <mxGraphModel dx="1426" dy="1881" grid="1" gridSize="10" guides="1" tooltips="1" connect="1" arrows="1" fold="1" page="1" pageScale="1" pageWidth="827" pageHeight="1169" math="0" shadow="0">
      <root>
        <mxCell id="0" />
        <mxCell id="1" parent="0" />
        <mxCell id="VrDyhfGXfM7bItQIT4_n-161" value="" style="group" vertex="1" connectable="0" parent="1">
          <mxGeometry x="52.64" y="-60" width="1087.36" height="680" as="geometry" />
        </mxCell>
        <mxCell id="VrDyhfGXfM7bItQIT4_n-1" value="" style="rounded=0;whiteSpace=wrap;html=1;fontSize=16;fillColor=#ffe6cc;strokeColor=#d79b00;" vertex="1" parent="VrDyhfGXfM7bItQIT4_n-161">
          <mxGeometry x="31.868778712187773" y="240.70796460176993" width="285.7612652190285" height="96.28318584070797" as="geometry" />
        </mxCell>
        <mxCell id="VrDyhfGXfM7bItQIT4_n-45" value="" style="group" vertex="1" connectable="0" parent="VrDyhfGXfM7bItQIT4_n-161">
          <mxGeometry x="373.07625957072923" y="421.23893805309734" width="338.9555114848752" height="258.7610619469026" as="geometry" />
        </mxCell>
        <mxCell id="VrDyhfGXfM7bItQIT4_n-42" style="edgeStyle=orthogonalEdgeStyle;rounded=0;orthogonalLoop=1;jettySize=auto;html=1;entryX=0;entryY=0.5;entryDx=0;entryDy=0;fontSize=16;" edge="1" parent="VrDyhfGXfM7bItQIT4_n-45" source="VrDyhfGXfM7bItQIT4_n-17">
          <mxGeometry relative="1" as="geometry">
            <mxPoint x="125.53860144795394" y="129.3805309734513" as="targetPoint" />
          </mxGeometry>
        </mxCell>
        <mxCell id="VrDyhfGXfM7bItQIT4_n-17" value="" style="rounded=1;whiteSpace=wrap;html=1;fontSize=16;fillColor=#ffe6cc;strokeColor=#d79b00;" vertex="1" parent="VrDyhfGXfM7bItQIT4_n-45">
          <mxGeometry width="94.15395108596543" height="258.76106194690254" as="geometry" />
        </mxCell>
        <mxCell id="VrDyhfGXfM7bItQIT4_n-3" value="10" style="rounded=0;whiteSpace=wrap;html=1;fontSize=16;fillColor=#d5e8d4;strokeColor=#82b366;" vertex="1" parent="VrDyhfGXfM7bItQIT4_n-45">
          <mxGeometry x="12.55386014479539" y="48.954795503468056" width="25.107720289590787" height="55.94833771824921" as="geometry" />
        </mxCell>
        <mxCell id="VrDyhfGXfM7bItQIT4_n-6" value="data" style="rounded=0;whiteSpace=wrap;html=1;fontSize=16;fillColor=#dae8fc;strokeColor=#6c8ebf;" vertex="1" parent="VrDyhfGXfM7bItQIT4_n-45">
          <mxGeometry x="37.66158043438618" y="48.954795503468056" width="43.93851050678388" height="55.94833771824921" as="geometry" />
        </mxCell>
        <mxCell id="VrDyhfGXfM7bItQIT4_n-7" value="11" style="rounded=0;whiteSpace=wrap;html=1;fontSize=16;fillColor=#d5e8d4;strokeColor=#82b366;" vertex="1" parent="VrDyhfGXfM7bItQIT4_n-45">
          <mxGeometry x="12.55386014479539" y="118.8902176512795" width="25.107720289590787" height="55.94833771824921" as="geometry" />
        </mxCell>
        <mxCell id="VrDyhfGXfM7bItQIT4_n-8" value="data" style="rounded=0;whiteSpace=wrap;html=1;fontSize=16;fillColor=#dae8fc;strokeColor=#6c8ebf;" vertex="1" parent="VrDyhfGXfM7bItQIT4_n-45">
          <mxGeometry x="37.66158043438618" y="118.8902176512795" width="43.93851050678388" height="55.94833771824921" as="geometry" />
        </mxCell>
        <mxCell id="VrDyhfGXfM7bItQIT4_n-9" value="12" style="rounded=0;whiteSpace=wrap;html=1;fontSize=16;fillColor=#d5e8d4;strokeColor=#82b366;" vertex="1" parent="VrDyhfGXfM7bItQIT4_n-45">
          <mxGeometry x="12.55386014479539" y="188.82563979909105" width="25.107720289590787" height="55.94833771824921" as="geometry" />
        </mxCell>
        <mxCell id="VrDyhfGXfM7bItQIT4_n-10" value="data" style="rounded=0;whiteSpace=wrap;html=1;fontSize=16;fillColor=#dae8fc;strokeColor=#6c8ebf;" vertex="1" parent="VrDyhfGXfM7bItQIT4_n-45">
          <mxGeometry x="37.66158043438618" y="188.82563979909105" width="43.93851050678388" height="55.94833771824921" as="geometry" />
        </mxCell>
        <mxCell id="VrDyhfGXfM7bItQIT4_n-25" value="叶子节点4" style="text;html=1;align=center;verticalAlign=middle;resizable=0;points=[];autosize=1;strokeColor=none;fillColor=none;fontSize=16;" vertex="1" parent="VrDyhfGXfM7bItQIT4_n-45">
          <mxGeometry x="8.688397848672942" y="12.036374073188258" width="90" height="20" as="geometry" />
        </mxCell>
        <mxCell id="VrDyhfGXfM7bItQIT4_n-26" value="" style="rounded=1;whiteSpace=wrap;html=1;fontSize=16;fillColor=#ffe6cc;strokeColor=#d79b00;" vertex="1" parent="VrDyhfGXfM7bItQIT4_n-45">
          <mxGeometry x="125.53988902335341" width="94.15395108596543" height="258.76106194690254" as="geometry" />
        </mxCell>
        <mxCell id="VrDyhfGXfM7bItQIT4_n-27" value="13" style="rounded=0;whiteSpace=wrap;html=1;fontSize=16;fillColor=#d5e8d4;strokeColor=#82b366;" vertex="1" parent="VrDyhfGXfM7bItQIT4_n-45">
          <mxGeometry x="138.09374916814883" y="48.954795503468056" width="25.107720289590787" height="55.94833771824921" as="geometry" />
        </mxCell>
        <mxCell id="VrDyhfGXfM7bItQIT4_n-28" value="data" style="rounded=0;whiteSpace=wrap;html=1;fontSize=16;fillColor=#dae8fc;strokeColor=#6c8ebf;" vertex="1" parent="VrDyhfGXfM7bItQIT4_n-45">
          <mxGeometry x="163.20146945773962" y="48.954795503468056" width="43.93851050678388" height="55.94833771824921" as="geometry" />
        </mxCell>
        <mxCell id="VrDyhfGXfM7bItQIT4_n-29" value="14" style="rounded=0;whiteSpace=wrap;html=1;fontSize=16;fillColor=#d5e8d4;strokeColor=#82b366;" vertex="1" parent="VrDyhfGXfM7bItQIT4_n-45">
          <mxGeometry x="138.09374916814883" y="118.8902176512795" width="25.107720289590787" height="55.94833771824921" as="geometry" />
        </mxCell>
        <mxCell id="VrDyhfGXfM7bItQIT4_n-30" value="data" style="rounded=0;whiteSpace=wrap;html=1;fontSize=16;fillColor=#dae8fc;strokeColor=#6c8ebf;" vertex="1" parent="VrDyhfGXfM7bItQIT4_n-45">
          <mxGeometry x="163.20146945773962" y="118.8902176512795" width="43.93851050678388" height="55.94833771824921" as="geometry" />
        </mxCell>
        <mxCell id="VrDyhfGXfM7bItQIT4_n-31" value="15" style="rounded=0;whiteSpace=wrap;html=1;fontSize=16;fillColor=#d5e8d4;strokeColor=#82b366;" vertex="1" parent="VrDyhfGXfM7bItQIT4_n-45">
          <mxGeometry x="138.09374916814883" y="188.82563979909105" width="25.107720289590787" height="55.94833771824921" as="geometry" />
        </mxCell>
        <mxCell id="VrDyhfGXfM7bItQIT4_n-32" value="data" style="rounded=0;whiteSpace=wrap;html=1;fontSize=16;fillColor=#dae8fc;strokeColor=#6c8ebf;" vertex="1" parent="VrDyhfGXfM7bItQIT4_n-45">
          <mxGeometry x="163.20146945773962" y="188.82563979909105" width="43.93851050678388" height="55.94833771824921" as="geometry" />
        </mxCell>
        <mxCell id="VrDyhfGXfM7bItQIT4_n-33" value="叶子节点5" style="text;html=1;align=center;verticalAlign=middle;resizable=0;points=[];autosize=1;strokeColor=none;fillColor=none;fontSize=16;" vertex="1" parent="VrDyhfGXfM7bItQIT4_n-45">
          <mxGeometry x="138.09246159274934" y="12.036374073188258" width="90" height="20" as="geometry" />
        </mxCell>
        <mxCell id="VrDyhfGXfM7bItQIT4_n-34" value="" style="rounded=1;whiteSpace=wrap;html=1;fontSize=16;fillColor=#ffe6cc;strokeColor=#d79b00;" vertex="1" parent="VrDyhfGXfM7bItQIT4_n-45">
          <mxGeometry x="244.80156039890963" width="94.15395108596543" height="258.76106194690254" as="geometry" />
        </mxCell>
        <mxCell id="VrDyhfGXfM7bItQIT4_n-43" style="edgeStyle=orthogonalEdgeStyle;rounded=0;orthogonalLoop=1;jettySize=auto;html=1;entryX=0;entryY=0.5;entryDx=0;entryDy=0;fontSize=16;" edge="1" parent="VrDyhfGXfM7bItQIT4_n-45" source="VrDyhfGXfM7bItQIT4_n-26" target="VrDyhfGXfM7bItQIT4_n-34">
          <mxGeometry relative="1" as="geometry" />
        </mxCell>
        <mxCell id="VrDyhfGXfM7bItQIT4_n-35" value="16" style="rounded=0;whiteSpace=wrap;html=1;fontSize=16;fillColor=#d5e8d4;strokeColor=#82b366;" vertex="1" parent="VrDyhfGXfM7bItQIT4_n-45">
          <mxGeometry x="257.355420543705" y="48.954795503468056" width="25.107720289590787" height="55.94833771824921" as="geometry" />
        </mxCell>
        <mxCell id="VrDyhfGXfM7bItQIT4_n-36" value="data" style="rounded=0;whiteSpace=wrap;html=1;fontSize=16;fillColor=#dae8fc;strokeColor=#6c8ebf;" vertex="1" parent="VrDyhfGXfM7bItQIT4_n-45">
          <mxGeometry x="282.4631408332958" y="48.954795503468056" width="43.93851050678388" height="55.94833771824921" as="geometry" />
        </mxCell>
        <mxCell id="VrDyhfGXfM7bItQIT4_n-37" value="17" style="rounded=0;whiteSpace=wrap;html=1;fontSize=16;fillColor=#d5e8d4;strokeColor=#82b366;" vertex="1" parent="VrDyhfGXfM7bItQIT4_n-45">
          <mxGeometry x="257.355420543705" y="118.8902176512795" width="25.107720289590787" height="55.94833771824921" as="geometry" />
        </mxCell>
        <mxCell id="VrDyhfGXfM7bItQIT4_n-38" value="data" style="rounded=0;whiteSpace=wrap;html=1;fontSize=16;fillColor=#dae8fc;strokeColor=#6c8ebf;" vertex="1" parent="VrDyhfGXfM7bItQIT4_n-45">
          <mxGeometry x="282.4631408332958" y="118.8902176512795" width="43.93851050678388" height="55.94833771824921" as="geometry" />
        </mxCell>
        <mxCell id="VrDyhfGXfM7bItQIT4_n-39" value="18" style="rounded=0;whiteSpace=wrap;html=1;fontSize=16;fillColor=#d5e8d4;strokeColor=#82b366;" vertex="1" parent="VrDyhfGXfM7bItQIT4_n-45">
          <mxGeometry x="257.355420543705" y="188.82563979909105" width="25.107720289590787" height="55.94833771824921" as="geometry" />
        </mxCell>
        <mxCell id="VrDyhfGXfM7bItQIT4_n-40" value="data" style="rounded=0;whiteSpace=wrap;html=1;fontSize=16;fillColor=#dae8fc;strokeColor=#6c8ebf;" vertex="1" parent="VrDyhfGXfM7bItQIT4_n-45">
          <mxGeometry x="282.4631408332958" y="188.82563979909105" width="43.93851050678388" height="55.94833771824921" as="geometry" />
        </mxCell>
        <mxCell id="VrDyhfGXfM7bItQIT4_n-41" value="叶子节点6" style="text;html=1;align=center;verticalAlign=middle;resizable=0;points=[];autosize=1;strokeColor=none;fillColor=none;fontSize=16;" vertex="1" parent="VrDyhfGXfM7bItQIT4_n-45">
          <mxGeometry x="257.3541329683056" y="12.036374073188258" width="90" height="20" as="geometry" />
        </mxCell>
        <mxCell id="VrDyhfGXfM7bItQIT4_n-46" value="" style="group" vertex="1" connectable="0" parent="VrDyhfGXfM7bItQIT4_n-161">
          <mxGeometry y="421.23893805309734" width="338.9555114848752" height="258.7610619469026" as="geometry" />
        </mxCell>
        <mxCell id="VrDyhfGXfM7bItQIT4_n-47" style="edgeStyle=orthogonalEdgeStyle;rounded=0;orthogonalLoop=1;jettySize=auto;html=1;entryX=0;entryY=0.5;entryDx=0;entryDy=0;fontSize=16;" edge="1" parent="VrDyhfGXfM7bItQIT4_n-46" source="VrDyhfGXfM7bItQIT4_n-48">
          <mxGeometry relative="1" as="geometry">
            <mxPoint x="125.53860144795394" y="129.3805309734513" as="targetPoint" />
          </mxGeometry>
        </mxCell>
        <mxCell id="VrDyhfGXfM7bItQIT4_n-48" value="" style="rounded=1;whiteSpace=wrap;html=1;fontSize=16;fillColor=#ffe6cc;strokeColor=#d79b00;" vertex="1" parent="VrDyhfGXfM7bItQIT4_n-46">
          <mxGeometry width="94.15395108596543" height="258.76106194690254" as="geometry" />
        </mxCell>
        <mxCell id="VrDyhfGXfM7bItQIT4_n-49" value="1" style="rounded=0;whiteSpace=wrap;html=1;fontSize=16;fillColor=#d5e8d4;strokeColor=#82b366;" vertex="1" parent="VrDyhfGXfM7bItQIT4_n-46">
          <mxGeometry x="12.55386014479539" y="48.954795503468056" width="25.107720289590787" height="55.94833771824921" as="geometry" />
        </mxCell>
        <mxCell id="VrDyhfGXfM7bItQIT4_n-50" value="data" style="rounded=0;whiteSpace=wrap;html=1;fontSize=16;fillColor=#dae8fc;strokeColor=#6c8ebf;" vertex="1" parent="VrDyhfGXfM7bItQIT4_n-46">
          <mxGeometry x="37.66158043438618" y="48.954795503468056" width="43.93851050678388" height="55.94833771824921" as="geometry" />
        </mxCell>
        <mxCell id="VrDyhfGXfM7bItQIT4_n-51" value="2" style="rounded=0;whiteSpace=wrap;html=1;fontSize=16;fillColor=#d5e8d4;strokeColor=#82b366;" vertex="1" parent="VrDyhfGXfM7bItQIT4_n-46">
          <mxGeometry x="12.55386014479539" y="118.8902176512795" width="25.107720289590787" height="55.94833771824921" as="geometry" />
        </mxCell>
        <mxCell id="VrDyhfGXfM7bItQIT4_n-52" value="data" style="rounded=0;whiteSpace=wrap;html=1;fontSize=16;fillColor=#dae8fc;strokeColor=#6c8ebf;" vertex="1" parent="VrDyhfGXfM7bItQIT4_n-46">
          <mxGeometry x="37.66158043438618" y="118.8902176512795" width="43.93851050678388" height="55.94833771824921" as="geometry" />
        </mxCell>
        <mxCell id="VrDyhfGXfM7bItQIT4_n-53" value="3" style="rounded=0;whiteSpace=wrap;html=1;fontSize=16;fillColor=#d5e8d4;strokeColor=#82b366;" vertex="1" parent="VrDyhfGXfM7bItQIT4_n-46">
          <mxGeometry x="12.55386014479539" y="188.82563979909105" width="25.107720289590787" height="55.94833771824921" as="geometry" />
        </mxCell>
        <mxCell id="VrDyhfGXfM7bItQIT4_n-54" value="data" style="rounded=0;whiteSpace=wrap;html=1;fontSize=16;fillColor=#dae8fc;strokeColor=#6c8ebf;" vertex="1" parent="VrDyhfGXfM7bItQIT4_n-46">
          <mxGeometry x="37.66158043438618" y="188.82563979909105" width="43.93851050678388" height="55.94833771824921" as="geometry" />
        </mxCell>
        <mxCell id="VrDyhfGXfM7bItQIT4_n-55" value="叶子节点1" style="text;html=1;align=center;verticalAlign=middle;resizable=0;points=[];autosize=1;strokeColor=none;fillColor=none;fontSize=16;" vertex="1" parent="VrDyhfGXfM7bItQIT4_n-46">
          <mxGeometry x="8.688397848672942" y="12.036374073188258" width="90" height="20" as="geometry" />
        </mxCell>
        <mxCell id="VrDyhfGXfM7bItQIT4_n-56" value="" style="rounded=1;whiteSpace=wrap;html=1;fontSize=16;fillColor=#ffe6cc;strokeColor=#d79b00;" vertex="1" parent="VrDyhfGXfM7bItQIT4_n-46">
          <mxGeometry x="125.53988902335341" width="94.15395108596543" height="258.76106194690254" as="geometry" />
        </mxCell>
        <mxCell id="VrDyhfGXfM7bItQIT4_n-57" value="4" style="rounded=0;whiteSpace=wrap;html=1;fontSize=16;fillColor=#d5e8d4;strokeColor=#82b366;" vertex="1" parent="VrDyhfGXfM7bItQIT4_n-46">
          <mxGeometry x="138.09374916814883" y="48.954795503468056" width="25.107720289590787" height="55.94833771824921" as="geometry" />
        </mxCell>
        <mxCell id="VrDyhfGXfM7bItQIT4_n-58" value="data" style="rounded=0;whiteSpace=wrap;html=1;fontSize=16;fillColor=#dae8fc;strokeColor=#6c8ebf;" vertex="1" parent="VrDyhfGXfM7bItQIT4_n-46">
          <mxGeometry x="163.20146945773962" y="48.954795503468056" width="43.93851050678388" height="55.94833771824921" as="geometry" />
        </mxCell>
        <mxCell id="VrDyhfGXfM7bItQIT4_n-59" value="5" style="rounded=0;whiteSpace=wrap;html=1;fontSize=16;fillColor=#d5e8d4;strokeColor=#82b366;" vertex="1" parent="VrDyhfGXfM7bItQIT4_n-46">
          <mxGeometry x="138.09374916814883" y="118.8902176512795" width="25.107720289590787" height="55.94833771824921" as="geometry" />
        </mxCell>
        <mxCell id="VrDyhfGXfM7bItQIT4_n-60" value="data" style="rounded=0;whiteSpace=wrap;html=1;fontSize=16;fillColor=#dae8fc;strokeColor=#6c8ebf;" vertex="1" parent="VrDyhfGXfM7bItQIT4_n-46">
          <mxGeometry x="163.20146945773962" y="118.8902176512795" width="43.93851050678388" height="55.94833771824921" as="geometry" />
        </mxCell>
        <mxCell id="VrDyhfGXfM7bItQIT4_n-61" value="6" style="rounded=0;whiteSpace=wrap;html=1;fontSize=16;fillColor=#d5e8d4;strokeColor=#82b366;" vertex="1" parent="VrDyhfGXfM7bItQIT4_n-46">
          <mxGeometry x="138.09374916814883" y="188.82563979909105" width="25.107720289590787" height="55.94833771824921" as="geometry" />
        </mxCell>
        <mxCell id="VrDyhfGXfM7bItQIT4_n-62" value="data" style="rounded=0;whiteSpace=wrap;html=1;fontSize=16;fillColor=#dae8fc;strokeColor=#6c8ebf;" vertex="1" parent="VrDyhfGXfM7bItQIT4_n-46">
          <mxGeometry x="163.20146945773962" y="188.82563979909105" width="43.93851050678388" height="55.94833771824921" as="geometry" />
        </mxCell>
        <mxCell id="VrDyhfGXfM7bItQIT4_n-63" value="叶子节点2" style="text;html=1;align=center;verticalAlign=middle;resizable=0;points=[];autosize=1;strokeColor=none;fillColor=none;fontSize=16;" vertex="1" parent="VrDyhfGXfM7bItQIT4_n-46">
          <mxGeometry x="138.09246159274934" y="12.036374073188258" width="90" height="20" as="geometry" />
        </mxCell>
        <mxCell id="VrDyhfGXfM7bItQIT4_n-64" value="" style="rounded=1;whiteSpace=wrap;html=1;fontSize=16;fillColor=#ffe6cc;strokeColor=#d79b00;" vertex="1" parent="VrDyhfGXfM7bItQIT4_n-46">
          <mxGeometry x="244.80156039890963" width="94.15395108596543" height="258.76106194690254" as="geometry" />
        </mxCell>
        <mxCell id="VrDyhfGXfM7bItQIT4_n-65" style="edgeStyle=orthogonalEdgeStyle;rounded=0;orthogonalLoop=1;jettySize=auto;html=1;entryX=0;entryY=0.5;entryDx=0;entryDy=0;fontSize=16;" edge="1" parent="VrDyhfGXfM7bItQIT4_n-46" source="VrDyhfGXfM7bItQIT4_n-56" target="VrDyhfGXfM7bItQIT4_n-64">
          <mxGeometry relative="1" as="geometry" />
        </mxCell>
        <mxCell id="VrDyhfGXfM7bItQIT4_n-66" value="7" style="rounded=0;whiteSpace=wrap;html=1;fontSize=16;fillColor=#d5e8d4;strokeColor=#82b366;" vertex="1" parent="VrDyhfGXfM7bItQIT4_n-46">
          <mxGeometry x="257.355420543705" y="48.954795503468056" width="25.107720289590787" height="55.94833771824921" as="geometry" />
        </mxCell>
        <mxCell id="VrDyhfGXfM7bItQIT4_n-67" value="data" style="rounded=0;whiteSpace=wrap;html=1;fontSize=16;fillColor=#dae8fc;strokeColor=#6c8ebf;" vertex="1" parent="VrDyhfGXfM7bItQIT4_n-46">
          <mxGeometry x="282.4631408332958" y="48.954795503468056" width="43.93851050678388" height="55.94833771824921" as="geometry" />
        </mxCell>
        <mxCell id="VrDyhfGXfM7bItQIT4_n-68" value="8" style="rounded=0;whiteSpace=wrap;html=1;fontSize=16;fillColor=#d5e8d4;strokeColor=#82b366;" vertex="1" parent="VrDyhfGXfM7bItQIT4_n-46">
          <mxGeometry x="257.355420543705" y="118.8902176512795" width="25.107720289590787" height="55.94833771824921" as="geometry" />
        </mxCell>
        <mxCell id="VrDyhfGXfM7bItQIT4_n-69" value="data" style="rounded=0;whiteSpace=wrap;html=1;fontSize=16;fillColor=#dae8fc;strokeColor=#6c8ebf;" vertex="1" parent="VrDyhfGXfM7bItQIT4_n-46">
          <mxGeometry x="282.4631408332958" y="118.8902176512795" width="43.93851050678388" height="55.94833771824921" as="geometry" />
        </mxCell>
        <mxCell id="VrDyhfGXfM7bItQIT4_n-70" value="9" style="rounded=0;whiteSpace=wrap;html=1;fontSize=16;fillColor=#d5e8d4;strokeColor=#82b366;" vertex="1" parent="VrDyhfGXfM7bItQIT4_n-46">
          <mxGeometry x="257.355420543705" y="188.82563979909105" width="25.107720289590787" height="55.94833771824921" as="geometry" />
        </mxCell>
        <mxCell id="VrDyhfGXfM7bItQIT4_n-71" value="data" style="rounded=0;whiteSpace=wrap;html=1;fontSize=16;fillColor=#dae8fc;strokeColor=#6c8ebf;" vertex="1" parent="VrDyhfGXfM7bItQIT4_n-46">
          <mxGeometry x="282.4631408332958" y="188.82563979909105" width="43.93851050678388" height="55.94833771824921" as="geometry" />
        </mxCell>
        <mxCell id="VrDyhfGXfM7bItQIT4_n-72" value="叶子节点3" style="text;html=1;align=center;verticalAlign=middle;resizable=0;points=[];autosize=1;strokeColor=none;fillColor=none;fontSize=16;" vertex="1" parent="VrDyhfGXfM7bItQIT4_n-46">
          <mxGeometry x="257.3541329683056" y="12.036374073188258" width="90" height="20" as="geometry" />
        </mxCell>
        <mxCell id="VrDyhfGXfM7bItQIT4_n-73" value="" style="group" vertex="1" connectable="0" parent="VrDyhfGXfM7bItQIT4_n-161">
          <mxGeometry x="748.4044885151249" y="421.23893805309734" width="338.9555114848752" height="258.7610619469026" as="geometry" />
        </mxCell>
        <mxCell id="VrDyhfGXfM7bItQIT4_n-74" style="edgeStyle=orthogonalEdgeStyle;rounded=0;orthogonalLoop=1;jettySize=auto;html=1;entryX=0;entryY=0.5;entryDx=0;entryDy=0;fontSize=16;" edge="1" parent="VrDyhfGXfM7bItQIT4_n-73" source="VrDyhfGXfM7bItQIT4_n-75">
          <mxGeometry relative="1" as="geometry">
            <mxPoint x="125.53860144795394" y="129.3805309734513" as="targetPoint" />
          </mxGeometry>
        </mxCell>
        <mxCell id="VrDyhfGXfM7bItQIT4_n-75" value="" style="rounded=1;whiteSpace=wrap;html=1;fontSize=16;fillColor=#ffe6cc;strokeColor=#d79b00;" vertex="1" parent="VrDyhfGXfM7bItQIT4_n-73">
          <mxGeometry width="94.15395108596543" height="258.76106194690254" as="geometry" />
        </mxCell>
        <mxCell id="VrDyhfGXfM7bItQIT4_n-76" value="19" style="rounded=0;whiteSpace=wrap;html=1;fontSize=16;fillColor=#d5e8d4;strokeColor=#82b366;" vertex="1" parent="VrDyhfGXfM7bItQIT4_n-73">
          <mxGeometry x="12.55386014479539" y="48.954795503468056" width="25.107720289590787" height="55.94833771824921" as="geometry" />
        </mxCell>
        <mxCell id="VrDyhfGXfM7bItQIT4_n-77" value="data" style="rounded=0;whiteSpace=wrap;html=1;fontSize=16;fillColor=#dae8fc;strokeColor=#6c8ebf;" vertex="1" parent="VrDyhfGXfM7bItQIT4_n-73">
          <mxGeometry x="37.66158043438618" y="48.954795503468056" width="43.93851050678388" height="55.94833771824921" as="geometry" />
        </mxCell>
        <mxCell id="VrDyhfGXfM7bItQIT4_n-78" value="20" style="rounded=0;whiteSpace=wrap;html=1;fontSize=16;fillColor=#d5e8d4;strokeColor=#82b366;" vertex="1" parent="VrDyhfGXfM7bItQIT4_n-73">
          <mxGeometry x="12.55386014479539" y="118.8902176512795" width="25.107720289590787" height="55.94833771824921" as="geometry" />
        </mxCell>
        <mxCell id="VrDyhfGXfM7bItQIT4_n-79" value="data" style="rounded=0;whiteSpace=wrap;html=1;fontSize=16;fillColor=#dae8fc;strokeColor=#6c8ebf;" vertex="1" parent="VrDyhfGXfM7bItQIT4_n-73">
          <mxGeometry x="37.66158043438618" y="118.8902176512795" width="43.93851050678388" height="55.94833771824921" as="geometry" />
        </mxCell>
        <mxCell id="VrDyhfGXfM7bItQIT4_n-80" value="21" style="rounded=0;whiteSpace=wrap;html=1;fontSize=16;fillColor=#d5e8d4;strokeColor=#82b366;" vertex="1" parent="VrDyhfGXfM7bItQIT4_n-73">
          <mxGeometry x="12.55386014479539" y="188.82563979909105" width="25.107720289590787" height="55.94833771824921" as="geometry" />
        </mxCell>
        <mxCell id="VrDyhfGXfM7bItQIT4_n-81" value="data" style="rounded=0;whiteSpace=wrap;html=1;fontSize=16;fillColor=#dae8fc;strokeColor=#6c8ebf;" vertex="1" parent="VrDyhfGXfM7bItQIT4_n-73">
          <mxGeometry x="37.66158043438618" y="188.82563979909105" width="43.93851050678388" height="55.94833771824921" as="geometry" />
        </mxCell>
        <mxCell id="VrDyhfGXfM7bItQIT4_n-82" value="叶子节点7" style="text;html=1;align=center;verticalAlign=middle;resizable=0;points=[];autosize=1;strokeColor=none;fillColor=none;fontSize=16;" vertex="1" parent="VrDyhfGXfM7bItQIT4_n-73">
          <mxGeometry x="8.688397848672942" y="12.036374073188258" width="90" height="20" as="geometry" />
        </mxCell>
        <mxCell id="VrDyhfGXfM7bItQIT4_n-83" value="" style="rounded=1;whiteSpace=wrap;html=1;fontSize=16;fillColor=#ffe6cc;strokeColor=#d79b00;" vertex="1" parent="VrDyhfGXfM7bItQIT4_n-73">
          <mxGeometry x="125.53988902335341" width="94.15395108596543" height="258.76106194690254" as="geometry" />
        </mxCell>
        <mxCell id="VrDyhfGXfM7bItQIT4_n-84" value="22" style="rounded=0;whiteSpace=wrap;html=1;fontSize=16;fillColor=#d5e8d4;strokeColor=#82b366;" vertex="1" parent="VrDyhfGXfM7bItQIT4_n-73">
          <mxGeometry x="138.09374916814883" y="48.954795503468056" width="25.107720289590787" height="55.94833771824921" as="geometry" />
        </mxCell>
        <mxCell id="VrDyhfGXfM7bItQIT4_n-85" value="data" style="rounded=0;whiteSpace=wrap;html=1;fontSize=16;fillColor=#dae8fc;strokeColor=#6c8ebf;" vertex="1" parent="VrDyhfGXfM7bItQIT4_n-73">
          <mxGeometry x="163.20146945773962" y="48.954795503468056" width="43.93851050678388" height="55.94833771824921" as="geometry" />
        </mxCell>
        <mxCell id="VrDyhfGXfM7bItQIT4_n-86" value="23" style="rounded=0;whiteSpace=wrap;html=1;fontSize=16;fillColor=#d5e8d4;strokeColor=#82b366;" vertex="1" parent="VrDyhfGXfM7bItQIT4_n-73">
          <mxGeometry x="138.09374916814883" y="118.8902176512795" width="25.107720289590787" height="55.94833771824921" as="geometry" />
        </mxCell>
        <mxCell id="VrDyhfGXfM7bItQIT4_n-87" value="data" style="rounded=0;whiteSpace=wrap;html=1;fontSize=16;fillColor=#dae8fc;strokeColor=#6c8ebf;" vertex="1" parent="VrDyhfGXfM7bItQIT4_n-73">
          <mxGeometry x="163.20146945773962" y="118.8902176512795" width="43.93851050678388" height="55.94833771824921" as="geometry" />
        </mxCell>
        <mxCell id="VrDyhfGXfM7bItQIT4_n-88" value="24" style="rounded=0;whiteSpace=wrap;html=1;fontSize=16;fillColor=#d5e8d4;strokeColor=#82b366;" vertex="1" parent="VrDyhfGXfM7bItQIT4_n-73">
          <mxGeometry x="138.09374916814883" y="188.82563979909105" width="25.107720289590787" height="55.94833771824921" as="geometry" />
        </mxCell>
        <mxCell id="VrDyhfGXfM7bItQIT4_n-89" value="data" style="rounded=0;whiteSpace=wrap;html=1;fontSize=16;fillColor=#dae8fc;strokeColor=#6c8ebf;" vertex="1" parent="VrDyhfGXfM7bItQIT4_n-73">
          <mxGeometry x="163.20146945773962" y="188.82563979909105" width="43.93851050678388" height="55.94833771824921" as="geometry" />
        </mxCell>
        <mxCell id="VrDyhfGXfM7bItQIT4_n-90" value="叶子节点8" style="text;html=1;align=center;verticalAlign=middle;resizable=0;points=[];autosize=1;strokeColor=none;fillColor=none;fontSize=16;" vertex="1" parent="VrDyhfGXfM7bItQIT4_n-73">
          <mxGeometry x="138.09246159274934" y="12.036374073188258" width="90" height="20" as="geometry" />
        </mxCell>
        <mxCell id="VrDyhfGXfM7bItQIT4_n-91" value="" style="rounded=1;whiteSpace=wrap;html=1;fontSize=16;fillColor=#ffe6cc;strokeColor=#d79b00;" vertex="1" parent="VrDyhfGXfM7bItQIT4_n-73">
          <mxGeometry x="244.80156039890963" width="94.15395108596543" height="258.76106194690254" as="geometry" />
        </mxCell>
        <mxCell id="VrDyhfGXfM7bItQIT4_n-92" style="edgeStyle=orthogonalEdgeStyle;rounded=0;orthogonalLoop=1;jettySize=auto;html=1;entryX=0;entryY=0.5;entryDx=0;entryDy=0;fontSize=16;" edge="1" parent="VrDyhfGXfM7bItQIT4_n-73" source="VrDyhfGXfM7bItQIT4_n-83" target="VrDyhfGXfM7bItQIT4_n-91">
          <mxGeometry relative="1" as="geometry" />
        </mxCell>
        <mxCell id="VrDyhfGXfM7bItQIT4_n-93" value="25" style="rounded=0;whiteSpace=wrap;html=1;fontSize=16;fillColor=#d5e8d4;strokeColor=#82b366;" vertex="1" parent="VrDyhfGXfM7bItQIT4_n-73">
          <mxGeometry x="257.355420543705" y="48.954795503468056" width="25.107720289590787" height="55.94833771824921" as="geometry" />
        </mxCell>
        <mxCell id="VrDyhfGXfM7bItQIT4_n-94" value="data" style="rounded=0;whiteSpace=wrap;html=1;fontSize=16;fillColor=#dae8fc;strokeColor=#6c8ebf;" vertex="1" parent="VrDyhfGXfM7bItQIT4_n-73">
          <mxGeometry x="281.4961717082967" y="48.95999999999998" width="44.90290448098406" height="55.9525663716814" as="geometry" />
        </mxCell>
        <mxCell id="VrDyhfGXfM7bItQIT4_n-95" value="26" style="rounded=0;whiteSpace=wrap;html=1;fontSize=16;fillColor=#d5e8d4;strokeColor=#82b366;" vertex="1" parent="VrDyhfGXfM7bItQIT4_n-73">
          <mxGeometry x="257.355420543705" y="118.8902176512795" width="25.107720289590787" height="55.94833771824921" as="geometry" />
        </mxCell>
        <mxCell id="VrDyhfGXfM7bItQIT4_n-96" value="data" style="rounded=0;whiteSpace=wrap;html=1;fontSize=16;fillColor=#dae8fc;strokeColor=#6c8ebf;" vertex="1" parent="VrDyhfGXfM7bItQIT4_n-73">
          <mxGeometry x="282.4631408332958" y="118.8902176512795" width="43.93851050678388" height="55.94833771824921" as="geometry" />
        </mxCell>
        <mxCell id="VrDyhfGXfM7bItQIT4_n-97" value="27" style="rounded=0;whiteSpace=wrap;html=1;fontSize=16;fillColor=#d5e8d4;strokeColor=#82b366;" vertex="1" parent="VrDyhfGXfM7bItQIT4_n-73">
          <mxGeometry x="257.355420543705" y="188.82563979909105" width="25.107720289590787" height="55.94833771824921" as="geometry" />
        </mxCell>
        <mxCell id="VrDyhfGXfM7bItQIT4_n-98" value="data" style="rounded=0;whiteSpace=wrap;html=1;fontSize=16;fillColor=#dae8fc;strokeColor=#6c8ebf;" vertex="1" parent="VrDyhfGXfM7bItQIT4_n-73">
          <mxGeometry x="282.4631408332958" y="188.82563979909105" width="43.93851050678388" height="55.94833771824921" as="geometry" />
        </mxCell>
        <mxCell id="VrDyhfGXfM7bItQIT4_n-99" value="叶子节点9" style="text;html=1;align=center;verticalAlign=middle;resizable=0;points=[];autosize=1;strokeColor=none;fillColor=none;fontSize=16;" vertex="1" parent="VrDyhfGXfM7bItQIT4_n-73">
          <mxGeometry x="257.3541329683056" y="12.036374073188258" width="90" height="20" as="geometry" />
        </mxCell>
        <mxCell id="VrDyhfGXfM7bItQIT4_n-100" style="edgeStyle=orthogonalEdgeStyle;rounded=0;orthogonalLoop=1;jettySize=auto;html=1;entryX=0;entryY=0.5;entryDx=0;entryDy=0;fontSize=16;" edge="1" parent="VrDyhfGXfM7bItQIT4_n-161" source="VrDyhfGXfM7bItQIT4_n-64" target="VrDyhfGXfM7bItQIT4_n-17">
          <mxGeometry relative="1" as="geometry" />
        </mxCell>
        <mxCell id="VrDyhfGXfM7bItQIT4_n-101" style="edgeStyle=orthogonalEdgeStyle;rounded=0;orthogonalLoop=1;jettySize=auto;html=1;entryX=0;entryY=0.5;entryDx=0;entryDy=0;fontSize=16;" edge="1" parent="VrDyhfGXfM7bItQIT4_n-161" source="VrDyhfGXfM7bItQIT4_n-34" target="VrDyhfGXfM7bItQIT4_n-75">
          <mxGeometry relative="1" as="geometry" />
        </mxCell>
        <mxCell id="VrDyhfGXfM7bItQIT4_n-134" style="rounded=0;orthogonalLoop=1;jettySize=auto;html=1;entryX=0.5;entryY=0;entryDx=0;entryDy=0;fontSize=16;exitX=0.5;exitY=1;exitDx=0;exitDy=0;" edge="1" parent="VrDyhfGXfM7bItQIT4_n-161" source="VrDyhfGXfM7bItQIT4_n-129" target="VrDyhfGXfM7bItQIT4_n-48">
          <mxGeometry relative="1" as="geometry" />
        </mxCell>
        <mxCell id="VrDyhfGXfM7bItQIT4_n-129" value="1" style="rounded=0;whiteSpace=wrap;html=1;fontSize=16;fillColor=#d5e8d4;strokeColor=#82b366;" vertex="1" parent="VrDyhfGXfM7bItQIT4_n-161">
          <mxGeometry x="87.31499435170078" y="270.7964601769911" width="34.12074808585414" height="48.141592920353986" as="geometry" />
        </mxCell>
        <mxCell id="VrDyhfGXfM7bItQIT4_n-135" style="edgeStyle=none;rounded=0;orthogonalLoop=1;jettySize=auto;html=1;entryX=0.5;entryY=0;entryDx=0;entryDy=0;fontSize=16;" edge="1" parent="VrDyhfGXfM7bItQIT4_n-161" source="VrDyhfGXfM7bItQIT4_n-130" target="VrDyhfGXfM7bItQIT4_n-56">
          <mxGeometry relative="1" as="geometry" />
        </mxCell>
        <mxCell id="VrDyhfGXfM7bItQIT4_n-130" value="4" style="rounded=0;whiteSpace=wrap;html=1;fontSize=16;fillColor=#d5e8d4;strokeColor=#82b366;" vertex="1" parent="VrDyhfGXfM7bItQIT4_n-161">
          <mxGeometry x="155.55649052340905" y="270.7964601769911" width="34.12074808585414" height="48.141592920353986" as="geometry" />
        </mxCell>
        <mxCell id="VrDyhfGXfM7bItQIT4_n-136" style="edgeStyle=none;rounded=0;orthogonalLoop=1;jettySize=auto;html=1;entryX=0.5;entryY=0;entryDx=0;entryDy=0;fontSize=16;" edge="1" parent="VrDyhfGXfM7bItQIT4_n-161" source="VrDyhfGXfM7bItQIT4_n-131" target="VrDyhfGXfM7bItQIT4_n-64">
          <mxGeometry relative="1" as="geometry" />
        </mxCell>
        <mxCell id="VrDyhfGXfM7bItQIT4_n-131" value="7" style="rounded=0;whiteSpace=wrap;html=1;fontSize=16;fillColor=#d5e8d4;strokeColor=#82b366;" vertex="1" parent="VrDyhfGXfM7bItQIT4_n-161">
          <mxGeometry x="223.79798669511737" y="270.7964601769911" width="34.12074808585414" height="48.141592920353986" as="geometry" />
        </mxCell>
        <mxCell id="VrDyhfGXfM7bItQIT4_n-132" value="非叶子节点1" style="text;html=1;align=center;verticalAlign=middle;resizable=0;points=[];autosize=1;strokeColor=none;fillColor=none;fontSize=16;" vertex="1" parent="VrDyhfGXfM7bItQIT4_n-161">
          <mxGeometry x="129.96592945901847" y="246.72566371681413" width="100" height="20" as="geometry" />
        </mxCell>
        <mxCell id="VrDyhfGXfM7bItQIT4_n-137" value="" style="rounded=0;whiteSpace=wrap;html=1;fontSize=16;fillColor=#ffe6cc;strokeColor=#d79b00;" vertex="1" parent="VrDyhfGXfM7bItQIT4_n-161">
          <mxGeometry x="407.19700765658354" y="246.72566371681413" width="285.7612652190285" height="96.28318584070797" as="geometry" />
        </mxCell>
        <mxCell id="VrDyhfGXfM7bItQIT4_n-142" style="edgeStyle=none;rounded=0;orthogonalLoop=1;jettySize=auto;html=1;entryX=0.5;entryY=0;entryDx=0;entryDy=0;fontSize=16;" edge="1" parent="VrDyhfGXfM7bItQIT4_n-161" source="VrDyhfGXfM7bItQIT4_n-138" target="VrDyhfGXfM7bItQIT4_n-17">
          <mxGeometry relative="1" as="geometry" />
        </mxCell>
        <mxCell id="VrDyhfGXfM7bItQIT4_n-138" value="10" style="rounded=0;whiteSpace=wrap;html=1;fontSize=16;fillColor=#d5e8d4;strokeColor=#82b366;" vertex="1" parent="VrDyhfGXfM7bItQIT4_n-161">
          <mxGeometry x="462.64322329609644" y="276.81415929203547" width="34.12074808585414" height="48.141592920353986" as="geometry" />
        </mxCell>
        <mxCell id="VrDyhfGXfM7bItQIT4_n-143" style="edgeStyle=none;rounded=0;orthogonalLoop=1;jettySize=auto;html=1;entryX=0.5;entryY=0;entryDx=0;entryDy=0;fontSize=16;" edge="1" parent="VrDyhfGXfM7bItQIT4_n-161" source="VrDyhfGXfM7bItQIT4_n-139" target="VrDyhfGXfM7bItQIT4_n-26">
          <mxGeometry relative="1" as="geometry" />
        </mxCell>
        <mxCell id="VrDyhfGXfM7bItQIT4_n-139" value="13" style="rounded=0;whiteSpace=wrap;html=1;fontSize=16;fillColor=#d5e8d4;strokeColor=#82b366;" vertex="1" parent="VrDyhfGXfM7bItQIT4_n-161">
          <mxGeometry x="530.8847194678048" y="276.81415929203547" width="34.12074808585414" height="48.141592920353986" as="geometry" />
        </mxCell>
        <mxCell id="VrDyhfGXfM7bItQIT4_n-144" style="edgeStyle=none;rounded=0;orthogonalLoop=1;jettySize=auto;html=1;entryX=0.5;entryY=0;entryDx=0;entryDy=0;fontSize=16;" edge="1" parent="VrDyhfGXfM7bItQIT4_n-161" source="VrDyhfGXfM7bItQIT4_n-140" target="VrDyhfGXfM7bItQIT4_n-34">
          <mxGeometry relative="1" as="geometry" />
        </mxCell>
        <mxCell id="VrDyhfGXfM7bItQIT4_n-140" value="16" style="rounded=0;whiteSpace=wrap;html=1;fontSize=16;fillColor=#d5e8d4;strokeColor=#82b366;" vertex="1" parent="VrDyhfGXfM7bItQIT4_n-161">
          <mxGeometry x="599.1262156395131" y="276.81415929203547" width="34.12074808585414" height="48.141592920353986" as="geometry" />
        </mxCell>
        <mxCell id="VrDyhfGXfM7bItQIT4_n-141" value="非叶子节点2" style="text;html=1;align=center;verticalAlign=middle;resizable=0;points=[];autosize=1;strokeColor=none;fillColor=none;fontSize=16;" vertex="1" parent="VrDyhfGXfM7bItQIT4_n-161">
          <mxGeometry x="505.29415840341414" y="252.74336283185835" width="100" height="20" as="geometry" />
        </mxCell>
        <mxCell id="VrDyhfGXfM7bItQIT4_n-145" value="" style="rounded=0;whiteSpace=wrap;html=1;fontSize=16;fillColor=#ffe6cc;strokeColor=#d79b00;" vertex="1" parent="VrDyhfGXfM7bItQIT4_n-161">
          <mxGeometry x="782.525236600979" y="252.74336283185835" width="285.7612652190285" height="96.28318584070797" as="geometry" />
        </mxCell>
        <mxCell id="VrDyhfGXfM7bItQIT4_n-150" style="edgeStyle=none;rounded=0;orthogonalLoop=1;jettySize=auto;html=1;entryX=0.5;entryY=0;entryDx=0;entryDy=0;fontSize=16;exitX=0.5;exitY=1;exitDx=0;exitDy=0;" edge="1" parent="VrDyhfGXfM7bItQIT4_n-161" source="VrDyhfGXfM7bItQIT4_n-146" target="VrDyhfGXfM7bItQIT4_n-75">
          <mxGeometry relative="1" as="geometry" />
        </mxCell>
        <mxCell id="VrDyhfGXfM7bItQIT4_n-146" value="19" style="rounded=0;whiteSpace=wrap;html=1;fontSize=16;fillColor=#d5e8d4;strokeColor=#82b366;" vertex="1" parent="VrDyhfGXfM7bItQIT4_n-161">
          <mxGeometry x="837.9714522404919" y="282.8318584070796" width="34.12074808585414" height="48.141592920353986" as="geometry" />
        </mxCell>
        <mxCell id="VrDyhfGXfM7bItQIT4_n-151" style="edgeStyle=none;rounded=0;orthogonalLoop=1;jettySize=auto;html=1;entryX=0.5;entryY=0;entryDx=0;entryDy=0;fontSize=16;" edge="1" parent="VrDyhfGXfM7bItQIT4_n-161" source="VrDyhfGXfM7bItQIT4_n-147" target="VrDyhfGXfM7bItQIT4_n-83">
          <mxGeometry relative="1" as="geometry" />
        </mxCell>
        <mxCell id="VrDyhfGXfM7bItQIT4_n-147" value="22" style="rounded=0;whiteSpace=wrap;html=1;fontSize=16;fillColor=#d5e8d4;strokeColor=#82b366;" vertex="1" parent="VrDyhfGXfM7bItQIT4_n-161">
          <mxGeometry x="906.2129484122001" y="282.8318584070796" width="34.12074808585414" height="48.141592920353986" as="geometry" />
        </mxCell>
        <mxCell id="VrDyhfGXfM7bItQIT4_n-152" style="edgeStyle=none;rounded=0;orthogonalLoop=1;jettySize=auto;html=1;entryX=0.5;entryY=0;entryDx=0;entryDy=0;fontSize=16;" edge="1" parent="VrDyhfGXfM7bItQIT4_n-161" source="VrDyhfGXfM7bItQIT4_n-148" target="VrDyhfGXfM7bItQIT4_n-91">
          <mxGeometry relative="1" as="geometry" />
        </mxCell>
        <mxCell id="VrDyhfGXfM7bItQIT4_n-148" value="25" style="rounded=0;whiteSpace=wrap;html=1;fontSize=16;fillColor=#d5e8d4;strokeColor=#82b366;" vertex="1" parent="VrDyhfGXfM7bItQIT4_n-161">
          <mxGeometry x="974.4544445839084" y="282.8318584070796" width="34.12074808585414" height="48.141592920353986" as="geometry" />
        </mxCell>
        <mxCell id="VrDyhfGXfM7bItQIT4_n-149" value="非叶子节点3" style="text;html=1;align=center;verticalAlign=middle;resizable=0;points=[];autosize=1;strokeColor=none;fillColor=none;fontSize=16;" vertex="1" parent="VrDyhfGXfM7bItQIT4_n-161">
          <mxGeometry x="880.6223873478095" y="258.7610619469026" width="100" height="20" as="geometry" />
        </mxCell>
        <mxCell id="VrDyhfGXfM7bItQIT4_n-153" value="" style="rounded=0;whiteSpace=wrap;html=1;fontSize=16;fillColor=#ffe6cc;strokeColor=#d79b00;" vertex="1" parent="VrDyhfGXfM7bItQIT4_n-161">
          <mxGeometry x="407.19700765658354" width="285.7612652190285" height="96.28318584070797" as="geometry" />
        </mxCell>
        <mxCell id="VrDyhfGXfM7bItQIT4_n-160" style="edgeStyle=none;rounded=0;orthogonalLoop=1;jettySize=auto;html=1;entryX=0.5;entryY=0;entryDx=0;entryDy=0;fontSize=16;" edge="1" parent="VrDyhfGXfM7bItQIT4_n-161" source="VrDyhfGXfM7bItQIT4_n-154" target="VrDyhfGXfM7bItQIT4_n-1">
          <mxGeometry relative="1" as="geometry" />
        </mxCell>
        <mxCell id="VrDyhfGXfM7bItQIT4_n-154" value="1" style="rounded=0;whiteSpace=wrap;html=1;fontSize=16;fillColor=#d5e8d4;strokeColor=#82b366;" vertex="1" parent="VrDyhfGXfM7bItQIT4_n-161">
          <mxGeometry x="462.64322329609644" y="30.08849557522124" width="34.12074808585414" height="48.141592920353986" as="geometry" />
        </mxCell>
        <mxCell id="VrDyhfGXfM7bItQIT4_n-159" style="edgeStyle=none;rounded=0;orthogonalLoop=1;jettySize=auto;html=1;entryX=0.5;entryY=0;entryDx=0;entryDy=0;fontSize=16;" edge="1" parent="VrDyhfGXfM7bItQIT4_n-161" source="VrDyhfGXfM7bItQIT4_n-155" target="VrDyhfGXfM7bItQIT4_n-137">
          <mxGeometry relative="1" as="geometry" />
        </mxCell>
        <mxCell id="VrDyhfGXfM7bItQIT4_n-155" value="10" style="rounded=0;whiteSpace=wrap;html=1;fontSize=16;fillColor=#d5e8d4;strokeColor=#82b366;" vertex="1" parent="VrDyhfGXfM7bItQIT4_n-161">
          <mxGeometry x="530.8847194678048" y="30.08849557522124" width="34.12074808585414" height="48.141592920353986" as="geometry" />
        </mxCell>
        <mxCell id="VrDyhfGXfM7bItQIT4_n-158" style="edgeStyle=none;rounded=0;orthogonalLoop=1;jettySize=auto;html=1;entryX=0.528;entryY=0.013;entryDx=0;entryDy=0;entryPerimeter=0;fontSize=16;exitX=0.5;exitY=1;exitDx=0;exitDy=0;" edge="1" parent="VrDyhfGXfM7bItQIT4_n-161" source="VrDyhfGXfM7bItQIT4_n-156" target="VrDyhfGXfM7bItQIT4_n-145">
          <mxGeometry relative="1" as="geometry" />
        </mxCell>
        <mxCell id="VrDyhfGXfM7bItQIT4_n-156" value="19" style="rounded=0;whiteSpace=wrap;html=1;fontSize=16;fillColor=#d5e8d4;strokeColor=#82b366;" vertex="1" parent="VrDyhfGXfM7bItQIT4_n-161">
          <mxGeometry x="599.1262156395131" y="30.08849557522124" width="34.12074808585414" height="48.141592920353986" as="geometry" />
        </mxCell>
        <mxCell id="VrDyhfGXfM7bItQIT4_n-157" value="根节点" style="text;html=1;align=center;verticalAlign=middle;resizable=0;points=[];autosize=1;strokeColor=none;fillColor=none;fontSize=16;" vertex="1" parent="VrDyhfGXfM7bItQIT4_n-161">
          <mxGeometry x="522.3545324463414" y="6.017699115044248" width="60" height="20" as="geometry" />
        </mxCell>
      </root>
    </mxGraphModel>
  </diagram>
</mxfile>
